# Blender v2.82 (sub 7) OBJ File: ''
# www.blender.org
v -0.546090 147.919785 43.518745
v -0.546291 147.727478 56.723152
v -16.536713 155.353897 56.663830
v 15.860198 153.914337 43.387859
v -12.535728 156.300323 35.487221
v 13.073184 166.317322 34.735851
v 9.481649 174.403076 33.096596
v -0.510446 181.956802 43.445148
v 15.883250 175.926758 43.575333
v -0.510228 182.164154 56.666668
v 15.883475 176.135315 56.797756
v -16.515133 175.960678 43.575333
v 17.871925 165.119080 43.491508
v 17.872566 165.724976 56.731335
v -0.518100 174.648041 63.536663
v 15.861670 155.319946 56.663830
v -0.535291 158.230438 63.600838
v -16.514915 176.169281 56.797749
v -18.526451 165.157196 43.491508
v -18.525818 165.763092 56.731335
v -16.538185 153.948242 43.387859
v -13.725205 166.345352 34.735851
v 11.862665 156.274750 35.487225
v -0.541894 151.927734 34.490505
v -0.513783 178.771622 34.093761
v -10.116743 174.423599 33.096596
vt 1.000000 1.000000
vt 1.000000 1.000000
vt 1.000000 1.000000
vt 1.000000 1.000000
vt 1.000000 1.000000
vt 1.000000 1.000000
vt 1.000000 1.000000
vt 1.000000 1.000000
vt 1.000000 1.000000
vt 1.000000 1.000000
vt 1.000000 1.000000
vt 1.000000 1.000000
vt 1.000000 1.000000
vt 1.000000 1.000000
vt 1.000000 1.000000
vt 1.000000 1.000000
vt 1.000000 1.000000
vt 1.000000 1.000000
vt 1.000000 1.000000
vt 1.000000 1.000000
vt 1.000000 1.000000
vt 1.000000 1.000000
vt 1.000000 1.000000
vt 1.000000 1.000000
vt 1.000000 1.000000
vt 1.000000 1.000000
vn -0.0187 -0.9799 -0.1986
vn -0.0201 -0.9013 0.4327
vn -0.7011 -0.5139 0.4943
vn 0.7527 -0.6191 -0.2238
vn 0.6529 -0.5741 -0.4940
vn -0.6574 -0.5694 -0.4935
vn -0.0064 -0.9139 -0.4057
vn 0.8629 0.0652 -0.5011
vn 0.5779 0.6853 -0.4431
vn -0.0034 0.9848 -0.1734
vn 0.7562 0.6126 -0.2300
vn -0.0067 0.9466 -0.3224
vn -0.5817 0.6818 -0.4435
vn -0.0026 0.9311 0.3648
vn 0.6899 0.5499 0.4707
vn -0.7570 0.6114 -0.2304
vn 0.9709 -0.0052 -0.2393
vn 0.8464 0.0002 0.5325
vn -0.0031 0.3305 0.9438
vn 0.7020 -0.5023 0.5049
vn -0.0038 -0.2538 0.9672
vn -0.6920 0.5495 0.4681
vn -0.9709 -0.0031 -0.2393
vn -0.8483 0.0019 0.5295
vn -0.7499 -0.6269 -0.2113
vn -0.8628 0.0670 -0.5011
s 1
f 1/1/1 2/2/2 3/3/3
f 2/2/2 1/1/1 4/4/4
f 1/1/1 23/5/5 4/4/4
f 1/1/1 5/6/6 24/7/7
f 23/5/5 1/1/1 24/7/7
f 6/8/8 4/4/4 23/5/5
f 7/9/9 8/10/10 9/11/11
f 9/11/11 6/8/8 7/9/9
f 8/10/10 7/9/9 25/12/12
f 26/13/13 8/10/10 25/12/12
f 8/10/10 10/14/14 11/15/15
f 8/10/10 11/15/15 9/11/11
f 8/10/10 26/13/13 12/16/16
f 10/14/14 8/10/10 12/16/16
f 11/15/15 13/17/17 9/11/11
f 11/15/15 14/18/18 13/17/17
f 10/14/14 15/19/19 11/15/15
f 14/18/18 11/15/15 15/19/19
f 6/8/8 9/11/11 13/17/17
f 13/17/17 16/20/20 4/4/4
f 2/2/2 4/4/4 16/20/20
f 6/8/8 13/17/17 4/4/4
f 17/21/21 16/20/20 14/18/18
f 14/18/18 16/20/20 13/17/17
f 17/21/21 2/2/2 16/20/20
f 3/3/3 2/2/2 17/21/21
f 15/19/19 17/21/21 14/18/18
f 18/22/22 19/23/23 20/24/24
f 19/23/23 3/3/3 20/24/24
f 19/23/23 21/25/25 3/3/3
f 3/3/3 17/21/21 20/24/24
f 1/1/1 3/3/3 21/25/25
f 21/25/25 22/26/26 5/6/6
f 22/26/26 21/25/25 19/23/23
f 5/6/6 1/1/1 21/25/25
f 12/16/16 19/23/23 18/22/22
f 10/14/14 12/16/16 18/22/22
f 22/26/26 12/16/16 26/13/13
f 22/26/26 19/23/23 12/16/16
f 15/19/19 20/24/24 17/21/21
f 20/24/24 15/19/19 18/22/22
f 18/22/22 15/19/19 10/14/14
