# Blender v2.82 (sub 7) OBJ File: ''
# www.blender.org
o HairCap
v -46.396332 210.109497 -9.219906
v -37.897133 197.576706 6.842500
v -39.002724 215.506317 22.692142
v 27.794069 195.896698 21.972048
v 37.698074 197.581512 6.381685
v 33.405273 215.397522 24.247318
v 45.997276 209.715912 -9.807095
v 43.987671 185.400711 -11.976715
v 23.834070 218.741516 28.901648
v 15.443672 205.050293 30.178471
v 29.710867 227.087097 8.908028
v -27.402731 195.893494 22.308077
v -15.354729 205.048706 30.367252
v -29.485933 224.687103 9.132116
v -28.549931 219.423096 31.264898
v -23.605930 228.194305 -10.335107
v -44.010727 185.418304 -11.839142
v -0.215531 230.419922 20.898506
v 23.190872 228.197495 -10.621484
v -0.453932 234.240723 -18.146294
v 28.573271 215.018311 -46.658291
v -29.023533 215.015106 -46.307919
v -0.660331 219.749527 -52.221493
v 13.024467 227.639099 27.471289
v -17.316332 233.904694 37.226509
v -13.802732 228.309509 22.864906
v -5.269930 214.659897 44.472904
v -0.145129 198.944702 31.930452
v -42.183533 197.035904 -40.037567
v -27.484327 186.362320 -56.759125
v 26.507671 186.410324 -57.887115
v -0.709928 187.789536 -60.847137
v 41.413269 197.018311 -40.147949
v 20.158876 165.123932 -49.842319
v -21.039524 165.120728 -49.591129
v -34.516327 174.791107 -29.327150
v 33.880470 174.794312 -29.744722
v 22.989277 142.819916 -45.115944
v -0.596325 151.512711 -42.875954
v 13.723675 154.235931 -55.629551
v 30.298075 160.613510 -26.922367
v 23.330076 162.976730 -54.391148
v -14.673124 154.234329 -55.456730
v -30.897125 160.610306 -26.549534
v -24.266726 162.973526 -54.099918
v -23.807522 142.816711 -44.831123
v -18.919525 145.195908 -30.303139
v 18.278875 145.197510 -30.530373
v -27.482725 153.925522 -56.997532
v 26.514076 153.928726 -57.327122
v -34.997925 151.533508 -43.066353
v 34.198875 151.538315 -43.488747
vt 1.000000 1.000000
vt 1.000000 1.000000
vt 1.000000 1.000000
vt 1.000000 1.000000
vt 1.000000 1.000000
vt 1.000000 1.000000
vt 1.000000 1.000000
vt 1.000000 1.000000
vt 1.000000 1.000000
vt 1.000000 1.000000
vt 1.000000 1.000000
vt 1.000000 1.000000
vt 1.000000 1.000000
vt 1.000000 1.000000
vt 1.000000 1.000000
vt 1.000000 1.000000
vt 1.000000 1.000000
vt 1.000000 1.000000
vt 1.000000 1.000000
vt 1.000000 1.000000
vt 1.000000 1.000000
vt 1.000000 1.000000
vt 1.000000 1.000000
vt 1.000000 1.000000
vt 1.000000 1.000000
vt 1.000000 1.000000
vt 1.000000 1.000000
vt 1.000000 1.000000
vt 1.000000 1.000000
vt 1.000000 1.000000
vt 1.000000 1.000000
vt 1.000000 1.000000
vt 1.000000 1.000000
vt 1.000000 1.000000
vt 1.000000 1.000000
vt 1.000000 1.000000
vt 1.000000 1.000000
vt 1.000000 1.000000
vt 1.000000 1.000000
vt 1.000000 1.000000
vt 1.000000 1.000000
vt 1.000000 1.000000
vt 1.000000 1.000000
vt 1.000000 1.000000
vt 1.000000 1.000000
vt 1.000000 1.000000
vt 1.000000 1.000000
vt 1.000000 1.000000
vt 1.000000 1.000000
vt 1.000000 1.000000
vt 1.000000 1.000000
vt 1.000000 1.000000
vn -0.9412 0.3376 0.0164
vn -0.8854 -0.2926 0.3613
vn -0.8234 0.2251 0.5209
vn 0.6642 -0.2723 0.6962
vn 0.8994 -0.1698 0.4027
vn 0.7328 0.2222 0.6431
vn 0.9436 0.3299 0.0290
vn 0.9807 -0.1954 -0.0079
vn 0.5071 0.3437 0.7904
vn 0.4215 -0.2806 0.8623
vn 0.5219 0.8426 0.1328
vn -0.5873 -0.3615 0.7242
vn -0.4301 -0.4900 0.7583
vn -0.4753 0.8762 0.0800
vn -0.7098 0.2368 0.6634
vn -0.4221 0.9028 -0.0827
vn -0.9784 -0.2066 0.0047
vn 0.0384 0.9993 -0.0030
vn 0.4063 0.9055 -0.1223
vn -0.0038 0.9872 -0.1593
vn 0.5127 0.6153 -0.5988
vn -0.5126 0.6128 -0.6015
vn -0.0106 0.6705 -0.7418
vn 0.3343 0.8264 0.4531
vn -0.3767 0.8100 0.4495
vn -0.3165 0.9314 -0.1799
vn 0.0017 -0.1176 0.9931
vn 0.0422 -0.6148 0.7876
vn -0.9023 0.0252 -0.4304
vn -0.5129 -0.1174 -0.8504
vn 0.5000 -0.1224 -0.8573
vn -0.0184 -0.0618 -0.9979
vn 0.9029 0.0202 -0.4295
vn 0.3387 0.2499 -0.9071
vn -0.3472 0.2548 -0.9025
vn -0.8568 -0.3970 -0.3291
vn 0.8514 -0.3954 -0.3446
vn 0.1728 -0.9625 -0.2090
vn 0.0018 -0.6446 -0.7645
vn -0.4827 -0.0904 -0.8711
vn 0.9803 -0.1906 -0.0525
vn 0.2536 0.7233 -0.6423
vn 0.4782 -0.0897 -0.8737
vn -0.9808 -0.1908 -0.0405
vn -0.2616 0.7232 -0.6391
vn -0.1732 -0.9630 -0.2066
vn -0.2083 -0.9341 0.2899
vn 0.2127 -0.9339 0.2872
vn -0.4649 -0.1572 -0.8713
vn 0.4542 -0.1572 -0.8769
vn -0.9740 -0.2195 -0.0554
vn 0.9733 -0.2192 -0.0673
s 1
f 1/1/1 2/2/2 3/3/3
f 4/4/4 5/5/5 6/6/6
f 7/7/7 5/5/5 8/8/8
f 6/6/6 5/5/5 7/7/7
f 9/9/9 10/10/10 6/6/6
f 6/6/6 7/7/7 11/11/11
f 9/9/9 6/6/6 11/11/11
f 6/6/6 10/10/10 4/4/4
f 12/12/12 13/13/13 3/3/3
f 12/12/12 3/3/3 2/2/2
f 1/1/1 3/3/3 14/14/14
f 15/15/15 3/3/3 13/13/13
f 15/15/15 14/14/14 3/3/3
f 14/14/14 16/16/16 1/1/1
f 1/1/1 17/17/17 2/2/2
f 18/18/18 19/19/19 20/20/20
f 21/21/21 20/20/20 19/19/19
f 21/21/21 19/19/19 7/7/7
f 19/19/19 11/11/11 7/7/7
f 19/19/19 18/18/18 11/11/11
f 20/20/20 22/22/22 16/16/16
f 21/21/21 23/23/23 20/20/20
f 20/20/20 23/23/23 22/22/22
f 20/20/20 16/16/16 18/18/18
f 18/18/18 16/16/16 14/14/14
f 24/24/24 18/18/18 25/25/25
f 24/24/24 11/11/11 18/18/18
f 16/16/16 22/22/22 1/1/1
f 26/26/26 14/14/14 15/15/15
f 18/18/18 14/14/14 26/26/26
f 27/27/27 15/15/15 13/13/13
f 27/27/27 13/13/13 28/28/28
f 29/29/29 22/22/22 30/30/30
f 29/29/29 1/1/1 22/22/22
f 23/23/23 30/30/30 22/22/22
f 31/31/31 23/23/23 21/21/21
f 31/31/31 32/32/32 23/23/23
f 23/23/23 32/32/32 30/30/30
f 21/21/21 33/33/33 31/31/31
f 7/7/7 33/33/33 21/21/21
f 25/25/25 27/27/27 9/9/9
f 25/25/25 9/9/9 24/24/24
f 25/25/25 26/26/26 15/15/15
f 25/25/25 15/15/15 27/27/27
f 25/25/25 18/18/18 26/26/26
f 9/9/9 11/11/11 24/24/24
f 10/10/10 9/9/9 27/27/27
f 10/10/10 27/27/27 28/28/28
f 32/32/32 34/34/34 35/35/35
f 8/8/8 33/33/33 7/7/7
f 32/32/32 35/35/35 30/30/30
f 35/35/35 29/29/29 30/30/30
f 17/17/17 1/1/1 29/29/29
f 35/35/35 36/36/36 29/29/29
f 17/17/17 29/29/29 36/36/36
f 33/33/33 34/34/34 31/31/31
f 8/8/8 37/37/37 33/33/33
f 37/37/37 34/34/34 33/33/33
f 31/31/31 34/34/34 32/32/32
f 38/38/38 39/39/39 40/40/40
f 34/34/34 39/39/39 35/35/35
f 41/41/41 34/34/34 37/37/37
f 40/40/40 39/39/39 34/34/34
f 41/41/41 42/42/42 34/34/34
f 34/34/34 42/42/42 40/40/40
f 35/35/35 39/39/39 43/43/43
f 35/35/35 44/44/44 36/36/36
f 35/35/35 43/43/43 45/45/45
f 45/45/45 44/44/44 35/35/35
f 46/46/46 39/39/39 47/47/47
f 39/39/39 38/38/38 48/48/48
f 39/39/39 46/46/46 43/43/43
f 45/45/45 43/43/43 49/49/49
f 43/43/43 46/46/46 49/49/49
f 38/38/38 40/40/40 50/50/50
f 40/40/40 42/42/42 50/50/50
f 45/45/45 49/49/49 51/51/51
f 46/46/46 51/51/51 49/49/49
f 44/44/44 45/45/45 51/51/51
f 51/51/51 47/47/47 44/44/44
f 47/47/47 51/51/51 46/46/46
f 48/48/48 52/52/52 41/41/41
f 42/42/42 41/41/41 52/52/52
f 52/52/52 48/48/48 38/38/38
f 52/52/52 38/38/38 50/50/50
f 42/42/42 52/52/52 50/50/50
