# Blender v2.82 (sub 7) OBJ File: ''
# www.blender.org
o LeftUpperLeg
v 3.353694 81.253036 -8.048153
v 19.274181 81.707764 4.452179
v 19.036201 86.693108 -13.601759
v 9.488056 81.212471 -28.069279
v 28.689926 81.455200 -27.973343
v 34.957031 81.363724 -8.266245
v 28.775970 42.922653 -28.114027
v 35.041515 42.863029 -8.010059
v 19.005169 34.143993 -13.431275
v 9.574102 42.680782 -28.211220
v 3.439745 42.721825 -8.190099
v 18.955048 42.812298 4.737418
v 7.051390 73.705284 -31.900383
v -0.716542 73.773811 -6.674159
v 31.453224 73.906036 -31.768604
v 39.283573 73.847504 -6.437038
v 19.181366 74.052513 9.073390
vt 1.000000 1.000000
vt 1.000000 1.000000
vt 1.000000 1.000000
vt 1.000000 1.000000
vt 1.000000 1.000000
vt 1.000000 1.000000
vt 1.000000 1.000000
vt 1.000000 1.000000
vt 1.000000 1.000000
vt 1.000000 1.000000
vt 1.000000 1.000000
vt 1.000000 1.000000
vt 1.000000 1.000000
vt 1.000000 1.000000
vt 1.000000 1.000000
vt 1.000000 1.000000
vt 1.000000 1.000000
vn -0.6711 0.7137 0.2008
vn 0.0002 0.7333 0.6799
vn -0.0073 0.9999 -0.0089
vn -0.4198 0.7216 -0.5505
vn 0.4035 0.7321 -0.5488
vn 0.6611 0.7289 0.1777
vn 0.5102 -0.5136 -0.6899
vn 0.8204 -0.5135 0.2514
vn -0.0010 -1.0000 0.0013
vn -0.5036 -0.5182 -0.6913
vn -0.8232 -0.5116 0.2459
vn -0.0096 -0.5176 0.8556
vn -0.5788 0.1763 -0.7961
vn -0.9408 0.1720 0.2920
vn 0.5848 0.1832 -0.7902
vn 0.9373 0.1808 0.2979
vn -0.0056 0.1811 0.9834
s 1
f 1/1/1 2/2/2 3/3/3
f 4/4/4 1/1/1 3/3/3
f 5/5/5 4/4/4 3/3/3
f 6/6/6 5/5/5 3/3/3
f 7/7/7 8/8/8 9/9/9
f 10/10/10 7/7/7 9/9/9
f 11/11/11 10/10/10 9/9/9
f 12/12/12 11/11/11 9/9/9
f 8/8/8 12/12/12 9/9/9
f 13/13/13 14/14/14 4/4/4
f 15/15/15 13/13/13 5/5/5
f 16/16/16 15/15/15 5/5/5
f 17/17/17 16/16/16 2/2/2
f 14/14/14 17/17/17 2/2/2
f 2/2/2 6/6/6 3/3/3
f 12/12/12 16/16/16 17/17/17
f 7/7/7 15/15/15 16/16/16
f 10/10/10 13/13/13 15/15/15
f 10/10/10 14/14/14 13/13/13
f 12/12/12 17/17/17 14/14/14
f 12/12/12 14/14/14 11/11/11
f 14/14/14 10/10/10 11/11/11
f 10/10/10 15/15/15 7/7/7
f 7/7/7 16/16/16 8/8/8
f 16/16/16 12/12/12 8/8/8
f 14/14/14 2/2/2 1/1/1
f 2/2/2 16/16/16 6/6/6
f 16/16/16 5/5/5 6/6/6
f 5/5/5 13/13/13 4/4/4
f 4/4/4 14/14/14 1/1/1
