# Blender v2.82 (sub 7) OBJ File: ''
# www.blender.org
o LeftShoe
v -0.199855 0.325401 14.345032
v 30.368023 0.192057 28.276779
v 8.368104 0.277994 28.668932
v 40.609653 0.211476 14.488172
v 2.967859 0.051742 -23.282860
v 36.972603 -0.013326 -23.438345
v 12.437949 -0.249447 -35.047180
v 26.026840 -0.170838 -36.093014
v 37.463570 19.627962 6.727585
v 2.695776 16.779160 6.681622
v 7.085346 19.042830 -26.208103
v 33.091587 18.872364 -26.269457
v 18.851910 19.187325 22.628592
v 18.579472 20.300869 -34.027843
v 20.110718 27.984089 3.249922
vt 1.000000 1.000000
vt 1.000000 1.000000
vt 1.000000 1.000000
vt 1.000000 1.000000
vt 1.000000 1.000000
vt 1.000000 1.000000
vt 1.000000 1.000000
vt 1.000000 1.000000
vt 1.000000 1.000000
vt 1.000000 1.000000
vt 1.000000 1.000000
vt 1.000000 1.000000
vt 1.000000 1.000000
vt 1.000000 1.000000
vt 1.000000 1.000000
vn -0.8126 -0.5267 0.2495
vn 0.4242 -0.4513 0.7851
vn -0.4603 -0.4313 0.7759
vn 0.8013 -0.5265 0.2842
vn -0.7569 -0.5931 -0.2744
vn 0.7458 -0.5986 -0.2923
vn -0.3804 -0.5932 -0.7095
vn 0.3153 -0.5686 -0.7598
vn 0.7714 0.6029 0.2038
vn -0.8136 0.5539 0.1770
vn -0.7021 0.5836 -0.4081
vn 0.6798 0.5809 -0.4477
vn -0.0545 0.7033 0.7088
vn -0.0511 0.6499 -0.7583
vn -0.0419 0.9912 0.1260
s 1
f 1/1/1 2/2/2 3/3/3
f 1/1/1 4/4/4 2/2/2
f 5/5/5 4/4/4 1/1/1
f 5/5/5 6/6/6 4/4/4
f 7/7/7 6/6/6 5/5/5
f 8/8/8 6/6/6 7/7/7
f 6/6/6 9/9/9 4/4/4
f 5/5/5 10/10/10 11/11/11
f 6/6/6 12/12/12 9/9/9
f 1/1/1 10/10/10 5/5/5
f 3/3/3 10/10/10 1/1/1
f 2/2/2 13/13/13 3/3/3
f 10/10/10 3/3/3 13/13/13
f 9/9/9 2/2/2 4/4/4
f 2/2/2 9/9/9 13/13/13
f 8/8/8 12/12/12 6/6/6
f 14/14/14 7/7/7 11/11/11
f 11/11/11 7/7/7 5/5/5
f 7/7/7 14/14/14 8/8/8
f 12/12/12 8/8/8 14/14/14
f 13/13/13 15/15/15 10/10/10
f 15/15/15 11/11/11 10/10/10
f 15/15/15 13/13/13 9/9/9
f 12/12/12 15/15/15 9/9/9
f 14/14/14 15/15/15 12/12/12
f 15/15/15 14/14/14 11/11/11
