# Blender v2.82 (sub 7) OBJ File: ''
# www.blender.org
mtllib untitled.mtl
o Overalls_Overalls.001
v 13.426414 121.657333 20.291655
v -14.171975 121.686226 20.291658
v 11.418482 114.083084 24.334505
v -12.179911 114.107796 24.334509
v -16.587856 106.520851 25.978043
v 15.810529 106.486931 25.978039
v 13.400478 96.889023 25.632954
v -14.597911 96.915985 25.233610
v -24.990398 104.102753 21.191936
v -10.209654 85.701477 23.697605
v -30.203419 91.676643 15.664272
v -22.208416 86.889137 19.291445
v 9.388740 85.680939 23.697605
v 21.388363 86.843483 19.291441
v 29.393364 91.614227 15.664267
v -23.771580 122.071159 15.888852
v -24.958294 134.757904 -4.182755
v -30.173702 120.048264 10.701620
v 24.206383 104.051247 21.191933
v 10.240983 135.573090 5.012755
v 23.025208 122.022156 15.888848
v 29.018505 115.612152 15.126280
v 29.423489 120.384888 10.699321
v 24.238483 134.706421 -4.182760
v 9.048435 142.691345 -9.427816
v -10.957406 135.595276 5.012756
v -29.778290 115.673721 15.126287
v -9.749954 142.711029 -9.427815
v -0.570983 124.155991 -34.922482
v -27.383610 110.588402 -34.043900
v -20.564323 129.002411 -30.549665
v -37.387737 105.116150 -13.613388
v -35.001610 91.879723 -19.537170
v -24.204132 90.992592 -32.731380
v -0.590278 105.731552 -39.216705
v -15.416622 79.053726 -20.663322
v -0.606175 90.551018 -35.929573
v -36.201477 91.998657 0.861989
v -36.585140 107.613663 3.571954
v 19.832458 128.960083 -30.549673
v 26.613167 110.531853 -34.043907
v 22.992649 90.943153 -32.731388
v 34.193584 91.807266 -19.537178
v 36.607433 105.036201 -14.012436
v 35.810463 107.938560 3.570645
v 35.793697 91.923271 0.861983
v 14.581760 79.022293 -20.663326
v -12.221452 74.438805 12.162803
v 11.376939 74.414093 12.162801
v 33.003407 101.199539 13.608866
v -33.391769 101.269073 13.608871
v -25.356728 136.258392 -21.392117
v -10.552978 139.827515 -24.212778
v 24.640053 136.206055 -21.392118
v 9.845414 139.806152 -24.212778
v -30.584560 109.682663 16.760517
v 29.812218 109.619415 16.760513
vt 1.000000 1.000000
vt 1.000000 1.000000
vt 1.000000 1.000000
vt 1.000000 1.000000
vt 1.000000 1.000000
vt 1.000000 1.000000
vt 1.000000 1.000000
vt 1.000000 1.000000
vt 1.000000 1.000000
vt 1.000000 1.000000
vt 1.000000 1.000000
vt 1.000000 1.000000
vt 1.000000 1.000000
vt 1.000000 1.000000
vt 1.000000 1.000000
vt 1.000000 1.000000
vt 1.000000 1.000000
vt 1.000000 1.000000
vt 1.000000 1.000000
vt 1.000000 1.000000
vt 1.000000 1.000000
vt 1.000000 1.000000
vt 1.000000 1.000000
vt 1.000000 1.000000
vt 1.000000 1.000000
vt 1.000000 1.000000
vt 1.000000 1.000000
vt 1.000000 1.000000
vt 1.000000 1.000000
vt 1.000000 1.000000
vt 1.000000 1.000000
vt 1.000000 1.000000
vt 1.000000 1.000000
vt 1.000000 1.000000
vt 1.000000 1.000000
vt 1.000000 1.000000
vt 1.000000 1.000000
vt 1.000000 1.000000
vt 1.000000 1.000000
vt 1.000000 1.000000
vt 1.000000 1.000000
vt 1.000000 1.000000
vt 1.000000 1.000000
vt 1.000000 1.000000
vt 1.000000 1.000000
vt 1.000000 1.000000
vt 1.000000 1.000000
vt 1.000000 1.000000
vt 1.000000 1.000000
vt 1.000000 1.000000
vt 1.000000 1.000000
vt 1.000000 1.000000
vt 1.000000 1.000000
vt 1.000000 1.000000
vt 1.000000 1.000000
vt 1.000000 1.000000
vt 1.000000 1.000000
vn 0.0005 0.4708 0.8822
vn 0.0004 0.3348 0.9423
vn -0.1815 -0.0294 0.9830
vn 0.1854 -0.0126 0.9826
vn 0.2263 -0.1513 0.9622
vn -0.2384 -0.1577 0.9583
vn -0.5484 -0.1302 0.8260
vn -0.1472 -0.4582 0.8766
vn -0.7138 -0.4068 0.5701
vn -0.5080 -0.4920 0.7070
vn 0.1445 -0.4688 0.8714
vn 0.5077 -0.4974 0.7034
vn 0.7021 -0.4154 0.5784
vn -0.4548 0.6979 0.5533
vn -0.4118 0.8463 0.3381
vn -0.7189 0.5129 0.4691
vn 0.5450 -0.1241 0.8292
vn 0.3371 0.8050 0.4882
vn 0.2567 0.7406 0.6210
vn 0.4454 0.6967 0.5624
vn 0.8320 0.3270 0.4481
vn 0.7029 0.5168 0.4887
vn 0.4101 0.8469 0.3386
vn 0.3514 0.9274 0.1279
vn -0.3354 0.8057 0.4882
vn -0.8346 0.3391 0.4340
vn -0.2551 0.7411 0.6210
vn -0.3495 0.9282 0.1279
vn -0.0009 0.3276 -0.9448
vn -0.4340 0.0281 -0.9005
vn -0.1658 0.4647 -0.8698
vn -0.9821 -0.0522 -0.1809
vn -0.8329 -0.4662 -0.2983
vn -0.4475 -0.4723 -0.7594
vn -0.0008 0.0088 -1.0000
vn -0.2659 -0.9026 -0.3385
vn -0.0007 -0.5106 -0.8598
vn -0.8751 -0.4716 0.1087
vn -0.9692 0.0474 0.2418
vn 0.1656 0.4635 -0.8705
vn 0.4303 0.0212 -0.9024
vn 0.4366 -0.4744 -0.7644
vn 0.8267 -0.4699 -0.3096
vn 0.9797 -0.0476 -0.1945
vn 0.9687 0.0723 0.2376
vn 0.8776 -0.4675 0.1063
vn 0.2637 -0.9022 -0.3414
vn -0.2699 -0.9162 0.2963
vn 0.2661 -0.9170 0.2972
vn 0.8539 -0.0384 0.5190
vn -0.8564 -0.0446 0.5144
vn -0.3555 0.8801 -0.3147
vn -0.2141 0.8035 -0.5554
vn 0.3573 0.8794 -0.3147
vn 0.2148 0.8020 -0.5573
vn -0.8427 0.1093 0.5272
vn 0.8349 0.1256 0.5358
usemtl Default_OBJ.002
s 1
f 1/1/1 2/2/1 3/3/2
f 3/3/2 2/2/1 4/4/2
f 5/5/3 6/6/4 3/3/2
f 5/5/3 3/3/2 4/4/2
f 7/7/5 6/6/4 5/5/3
f 7/7/5 5/5/3 8/8/6
f 9/9/7 8/8/6 5/5/3
f 8/8/6 10/10/8 7/7/5
f 11/11/9 8/8/6 9/9/7
f 8/8/6 11/11/9 12/12/10
f 12/12/10 10/10/8 8/8/6
f 13/13/11 14/14/12 7/7/5
f 7/7/5 10/10/8 13/13/11
f 15/15/13 7/7/5 14/14/12
f 16/16/14 17/17/15 18/18/16
f 7/7/5 19/19/17 6/6/4
f 20/20/18 1/1/19 21/21/20
f 21/21/20 22/22/21 23/23/22
f 24/24/23 21/21/20 23/23/22
f 21/21/20 24/24/23 20/20/18
f 24/24/23 25/25/24 20/20/18
f 16/16/14 26/26/25 17/17/15
f 27/27/26 16/16/14 18/18/16
f 26/26/25 16/16/14 2/2/27
f 28/28/28 17/17/15 26/26/25
f 29/29/29 30/30/30 31/31/31
f 32/32/32 30/30/30 33/33/33
f 33/33/33 30/30/30 34/34/34
f 30/30/30 29/29/29 35/35/35
f 35/35/35 34/34/34 30/30/30
f 36/36/36 33/33/33 34/34/34
f 34/34/34 37/37/37 36/36/36
f 34/34/34 35/35/35 37/37/37
f 32/32/32 33/33/33 38/38/38
f 36/36/36 38/38/38 33/33/33
f 39/39/39 32/32/32 38/38/38
f 40/40/40 41/41/41 29/29/29
f 29/29/29 41/41/41 35/35/35
f 42/42/42 35/35/35 41/41/41
f 43/43/43 42/42/42 41/41/41
f 43/43/43 41/41/41 44/44/44
f 45/45/45 46/46/46 44/44/44
f 43/43/43 44/44/44 46/46/46
f 47/47/47 42/42/42 43/43/43
f 46/46/46 47/47/47 43/43/43
f 47/47/47 37/37/37 42/42/42
f 35/35/35 42/42/42 37/37/37
f 48/48/48 11/11/9 38/38/38
f 38/38/38 36/36/36 48/48/48
f 49/49/49 48/48/48 47/47/47
f 48/48/48 13/13/11 10/10/8
f 12/12/10 48/48/48 10/10/8
f 47/47/47 48/48/48 36/36/36
f 48/48/48 12/12/10 11/11/9
f 49/49/49 13/13/11 48/48/48
f 37/37/37 47/47/47 36/36/36
f 47/47/47 46/46/46 49/49/49
f 14/14/12 49/49/49 15/15/13
f 49/49/49 14/14/12 13/13/11
f 50/50/50 46/46/46 45/45/45
f 50/50/50 15/15/13 46/46/46
f 15/15/13 49/49/49 46/46/46
f 39/39/39 38/38/38 51/51/51
f 51/51/51 38/38/38 11/11/9
f 52/52/52 17/17/15 28/28/28
f 52/52/52 28/28/28 53/53/53
f 31/31/31 52/52/52 53/53/53
f 53/53/53 29/29/29 31/31/31
f 54/54/54 40/40/40 55/55/55
f 25/25/24 54/54/54 55/55/55
f 25/25/24 24/24/23 54/54/54
f 29/29/29 55/55/55 40/40/40
f 9/9/7 56/56/56 51/51/51
f 51/51/51 11/11/9 9/9/7
f 45/45/45 22/22/21 57/57/57
f 19/19/17 15/15/13 50/50/50
f 19/19/17 7/7/5 15/15/13
f 57/57/57 19/19/17 50/50/50
f 45/45/45 57/57/57 50/50/50
f 56/56/56 39/39/39 51/51/51
f 18/18/16 39/39/39 27/27/26
f 22/22/21 45/45/45 23/23/22
f 27/27/26 39/39/39 56/56/56
