# Blender v2.82 (sub 7) OBJ File: ''
# www.blender.org
o RightHand
v -69.307693 91.452606 -4.111559
v -87.475220 96.485268 -19.559753
v -75.458977 86.038239 1.274736
v -72.884262 93.967216 -38.821632
v -79.406830 89.986389 -43.706139
v -77.023300 104.827858 -20.267393
v -65.988182 95.581902 1.127661
v -70.426208 98.981827 -43.536976
v -55.965435 86.707100 -37.315720
v -59.233921 82.438431 -12.246799
v -53.366177 84.466553 -9.744793
v -59.852211 100.117126 -22.060696
v -93.068375 74.019341 -43.995190
v -88.653618 69.758675 2.187188
v -62.246128 60.074051 -3.033403
v -64.026993 61.540226 -21.534988
v -74.933395 56.222649 -8.143040
v -101.873611 79.694908 -19.375923
v -89.825432 59.997623 -23.731064
v -75.794861 57.108959 -18.098930
v -75.818626 64.973251 -36.955120
v -73.657196 73.980499 -43.314804
v -61.372051 74.294655 -23.649799
v -61.041451 84.435844 -33.928574
v -77.338425 98.772469 -20.121750
vt 1.000000 1.000000
vt 1.000000 1.000000
vt 1.000000 1.000000
vt 1.000000 1.000000
vt 1.000000 1.000000
vt 1.000000 1.000000
vt 1.000000 1.000000
vt 1.000000 1.000000
vt 1.000000 1.000000
vt 1.000000 1.000000
vt 1.000000 1.000000
vt 1.000000 1.000000
vt 1.000000 1.000000
vt 1.000000 1.000000
vt 1.000000 1.000000
vt 1.000000 1.000000
vt 1.000000 1.000000
vt 1.000000 1.000000
vt 1.000000 1.000000
vt 1.000000 1.000000
vt 1.000000 1.000000
vt 1.000000 1.000000
vt 1.000000 1.000000
vt 1.000000 1.000000
vt 1.000000 1.000000
vn -0.2468 0.0774 0.9660
vn -0.5411 0.8328 0.1167
vn 0.0092 0.4325 0.9016
vn -0.3806 0.2700 -0.8844
vn -0.1247 0.5398 -0.8325
vn -0.6062 0.7882 0.1061
vn -0.0031 0.2461 0.9692
vn -0.1764 0.4007 -0.8991
vn 0.6864 -0.3158 -0.6551
vn 0.7088 -0.5730 0.4114
vn 0.7963 -0.3977 0.4558
vn 0.6475 0.7620 -0.0064
vn -0.6135 -0.1629 -0.7727
vn -0.5299 -0.2155 0.8202
vn 0.6410 -0.5456 0.5399
vn 0.6956 -0.6485 -0.3093
vn -0.0741 -0.9517 0.2981
vn -0.9823 0.1516 0.1103
vn -0.5365 -0.8330 -0.1354
vn 0.0757 -0.9754 -0.2070
vn 0.2000 -0.7625 -0.6153
vn 0.4049 -0.2883 -0.8677
vn 0.9358 -0.2398 -0.2583
vn 0.4860 -0.6450 -0.5898
vn -0.7609 0.6301 0.1547
s 1
f 1/1/1 2/2/2 3/3/3
f 4/4/4 5/5/5 2/2/2
f 6/6/6 1/1/1 7/7/7
f 4/4/4 6/6/6 8/8/8
f 9/9/9 4/4/4 8/8/8
f 10/10/10 9/9/9 11/11/11
f 1/1/1 11/11/11 7/7/7
f 6/6/6 7/7/7 12/12/12
f 8/8/8 6/6/6 12/12/12
f 9/9/9 8/8/8 12/12/12
f 11/11/11 9/9/9 12/12/12
f 7/7/7 11/11/11 12/12/12
f 2/2/2 5/5/5 13/13/13
f 3/3/3 2/2/2 14/14/14
f 15/15/15 3/3/3 14/14/14
f 16/16/16 15/15/15 17/17/17
f 18/18/18 13/13/13 19/19/19
f 14/14/14 18/18/18 19/19/19
f 17/17/17 14/14/14 19/19/19
f 20/20/20 17/17/17 19/19/19
f 13/13/13 21/21/21 19/19/19
f 16/16/16 20/20/20 21/21/21
f 16/16/16 21/21/21 22/22/22
f 16/16/16 22/22/22 23/23/23
f 15/15/15 14/14/14 17/17/17
f 13/13/13 22/22/22 21/21/21
f 22/22/22 13/13/13 5/5/5
f 20/20/20 19/19/19 21/21/21
f 16/16/16 17/17/17 20/20/20
f 14/14/14 2/2/2 18/18/18
f 2/2/2 13/13/13 18/18/18
f 11/11/11 1/1/1 10/10/10
f 9/9/9 10/10/10 24/24/24
f 4/4/4 9/9/9 24/24/24
f 6/6/6 4/4/4 25/25/25
f 1/1/1 6/6/6 25/25/25
f 4/4/4 2/2/2 25/25/25
f 10/10/10 23/23/23 24/24/24
f 2/2/2 1/1/1 25/25/25
f 10/10/10 3/3/3 15/15/15
f 10/10/10 15/15/15 23/23/23
f 23/23/23 15/15/15 16/16/16
f 3/3/3 10/10/10 1/1/1
f 24/24/24 5/5/5 4/4/4
f 22/22/22 24/24/24 23/23/23
f 24/24/24 22/22/22 5/5/5
