# Blender v2.82 (sub 7) OBJ File: ''
# www.blender.org
o RightLowerArm
v -55.759762 119.629189 -15.404104
v -68.522614 104.709282 -16.496302
v -46.789951 110.646774 -7.299603
v -60.743477 96.988777 -9.381761
v -38.529770 102.409302 -17.221577
v -53.563828 89.775391 -18.313908
v -42.414948 106.645210 -31.021040
v -57.036785 93.444923 -29.784849
v -52.871208 117.100273 -29.990644
v -66.086525 102.499802 -29.000290
v -43.914150 114.270248 -11.459409
v -49.610191 120.352661 -16.867363
v -47.887138 118.696953 -26.845762
v -40.808167 111.603279 -27.284496
v -38.030308 108.780167 -18.094915
v -64.760605 94.384583 -20.771227
vt 1.000000 1.000000
vt 1.000000 1.000000
vt 1.000000 1.000000
vt 1.000000 1.000000
vt 1.000000 1.000000
vt 1.000000 1.000000
vt 1.000000 1.000000
vt 1.000000 1.000000
vt 1.000000 1.000000
vt 1.000000 1.000000
vt 1.000000 1.000000
vt 1.000000 1.000000
vt 1.000000 1.000000
vt 1.000000 1.000000
vt 1.000000 1.000000
vt 1.000000 1.000000
vn -0.4463 0.8203 0.3577
vn -0.9299 0.2053 0.3051
vn 0.2369 0.1427 0.9610
vn -0.3269 -0.4109 0.8511
vn 0.8531 -0.4692 0.2280
vn 0.2214 -0.9591 0.1765
vn 0.5669 -0.1490 -0.8102
vn -0.0394 -0.6713 -0.7401
vn -0.2366 0.6303 -0.7394
vn -0.7375 0.0385 -0.6743
vn 0.6080 0.5896 0.5317
vn 0.2490 0.9457 0.2090
vn 0.3461 0.8476 -0.4022
vn 0.8052 0.4168 -0.4218
vn 0.9609 0.2447 0.1299
vn -0.7165 -0.6973 -0.0173
s 1
f 1/1/1 2/2/2 3/3/3
f 3/3/3 4/4/4 5/5/5
f 5/5/5 6/6/6 7/7/7
f 7/7/7 8/8/8 9/9/9
f 9/9/9 10/10/10 1/1/1
f 1/1/1 3/3/3 11/11/11
f 9/9/9 1/1/1 12/12/12
f 7/7/7 9/9/9 13/13/13
f 5/5/5 7/7/7 14/14/14
f 3/3/3 5/5/5 15/15/15
f 2/2/2 10/10/10 16/16/16
f 4/4/4 2/2/2 16/16/16
f 6/6/6 4/4/4 16/16/16
f 8/8/8 6/6/6 16/16/16
f 10/10/10 8/8/8 16/16/16
f 3/3/3 15/15/15 11/11/11
f 5/5/5 14/14/14 15/15/15
f 7/7/7 13/13/13 14/14/14
f 9/9/9 12/12/12 13/13/13
f 1/1/1 11/11/11 12/12/12
f 1/1/1 10/10/10 2/2/2
f 9/9/9 8/8/8 10/10/10
f 7/7/7 6/6/6 8/8/8
f 5/5/5 4/4/4 6/6/6
f 3/3/3 2/2/2 4/4/4
f 13/13/13 12/12/12 14/14/14
f 14/14/14 12/12/12 11/11/11
f 14/14/14 11/11/11 15/15/15
