# Blender v2.82 (sub 7) OBJ File: ''
# www.blender.org
o RightLowerLeg
v -20.283405 42.784378 4.497837
v -20.633114 18.998817 6.656614
v -2.637970 18.933620 -7.523064
v -10.827259 42.916943 -27.853729
v -9.693903 19.004169 -29.757044
v -30.438755 42.645809 -28.079130
v -31.692661 18.669584 -29.513193
v -38.646137 18.795969 -7.243571
v -4.643191 42.980946 -7.991010
v -20.537518 50.701855 -13.451376
v -36.665668 42.932129 -8.227412
v -20.310608 12.228817 -13.413056
vt 1.000000 1.000000
vt 1.000000 1.000000
vt 1.000000 1.000000
vt 1.000000 1.000000
vt 1.000000 1.000000
vt 1.000000 1.000000
vt 1.000000 1.000000
vt 1.000000 1.000000
vt 1.000000 1.000000
vt 1.000000 1.000000
vt 1.000000 1.000000
vt 1.000000 1.000000
vn 0.0093 0.5028 0.8644
vn 0.0004 -0.4558 0.8901
vn 0.8489 -0.4600 0.2603
vn 0.5120 0.5075 -0.6930
vn 0.5224 -0.4558 -0.7207
vn -0.5103 0.4968 -0.7020
vn -0.5259 -0.4709 -0.7083
vn -0.8439 -0.4623 0.2721
vn 0.8246 0.5039 0.2572
vn -0.0014 1.0000 -0.0013
vn -0.8242 0.5064 0.2535
vn 0.0132 -0.9999 0.0032
s 1
f 1/1/1 2/2/2 3/3/3
f 4/4/4 3/3/3 5/5/5
f 6/6/6 5/5/5 7/7/7
f 6/6/6 7/7/7 8/8/8
f 1/1/1 8/8/8 2/2/2
f 1/1/1 9/9/9 10/10/10
f 11/11/11 1/1/1 10/10/10
f 6/6/6 11/11/11 10/10/10
f 4/4/4 6/6/6 10/10/10
f 9/9/9 4/4/4 10/10/10
f 2/2/2 8/8/8 12/12/12
f 3/3/3 2/2/2 12/12/12
f 5/5/5 3/3/3 12/12/12
f 7/7/7 5/5/5 12/12/12
f 8/8/8 7/7/7 12/12/12
f 8/8/8 1/1/1 11/11/11
f 6/6/6 8/8/8 11/11/11
f 5/5/5 6/6/6 4/4/4
f 3/3/3 4/4/4 9/9/9
f 1/1/1 3/3/3 9/9/9
