# Blender v2.82 (sub 7) OBJ File: ''
# www.blender.org
o RightUpperLeg
v -20.249180 73.940071 9.266032
v -20.286415 42.967953 4.494493
v -0.705040 74.060944 -6.559623
v -10.843238 42.943493 -28.314455
v -8.255529 73.984489 -32.060814
v -32.658794 73.948166 -31.781300
v -30.049595 42.992107 -28.187462
v -40.323044 73.704277 -6.630153
v -36.091114 81.268097 -8.251551
v -20.519211 81.933754 4.514875
v -20.327023 86.699501 -13.612775
v -30.274803 81.561043 -28.131180
v -10.657207 81.554375 -27.871166
v -36.254669 42.730927 -7.898206
v -20.260490 34.112854 -13.171169
v -4.643253 42.920822 -7.989793
v -4.868466 81.488441 -7.934594
vt 1.000000 1.000000
vt 1.000000 1.000000
vt 1.000000 1.000000
vt 1.000000 1.000000
vt 1.000000 1.000000
vt 1.000000 1.000000
vt 1.000000 1.000000
vt 1.000000 1.000000
vt 1.000000 1.000000
vt 1.000000 1.000000
vt 1.000000 1.000000
vt 1.000000 1.000000
vt 1.000000 1.000000
vt 1.000000 1.000000
vt 1.000000 1.000000
vt 1.000000 1.000000
vt 1.000000 1.000000
vn 0.0082 0.1698 0.9854
vn 0.0066 -0.5116 0.8592
vn 0.9392 0.1763 0.2946
vn 0.5062 -0.5141 -0.6925
vn 0.5792 0.1820 -0.7946
vn -0.5877 0.1683 -0.7914
vn -0.5097 -0.5131 -0.6906
vn -0.9396 0.1716 0.2962
vn -0.6665 0.7206 0.1910
vn -0.0116 0.7340 0.6791
vn -0.0008 1.0000 -0.0065
vn -0.4236 0.7219 -0.5473
vn 0.4254 0.7346 -0.5285
vn -0.8181 -0.5130 0.2600
vn 0.0079 -0.9999 0.0088
vn 0.8249 -0.5043 0.2553
vn 0.6617 0.7214 0.2042
s 1
f 1/1/1 2/2/2 3/3/3
f 3/3/3 4/4/4 5/5/5
f 5/5/5 4/4/4 6/6/6
f 6/6/6 7/7/7 8/8/8
f 8/8/8 2/2/2 1/1/1
f 9/9/9 10/10/10 11/11/11
f 1/1/1 3/3/3 10/10/10
f 8/8/8 1/1/1 10/10/10
f 6/6/6 8/8/8 12/12/12
f 5/5/5 6/6/6 12/12/12
f 3/3/3 5/5/5 13/13/13
f 2/2/2 14/14/14 15/15/15
f 16/16/16 2/2/2 15/15/15
f 4/4/4 16/16/16 15/15/15
f 7/7/7 4/4/4 15/15/15
f 14/14/14 7/7/7 15/15/15
f 12/12/12 9/9/9 11/11/11
f 13/13/13 12/12/12 11/11/11
f 17/17/17 13/13/13 11/11/11
f 10/10/10 17/17/17 11/11/11
f 3/3/3 13/13/13 17/17/17
f 5/5/5 12/12/12 13/13/13
f 12/12/12 8/8/8 9/9/9
f 8/8/8 10/10/10 9/9/9
f 10/10/10 3/3/3 17/17/17
f 2/2/2 8/8/8 14/14/14
f 8/8/8 7/7/7 14/14/14
f 6/6/6 4/4/4 7/7/7
f 4/4/4 3/3/3 16/16/16
f 3/3/3 2/2/2 16/16/16
