# Blender v2.82 (sub 7) OBJ File: ''
# www.blender.org
o RightUpperArm
v -43.214214 134.844254 -7.487412
v -55.038052 119.734848 -15.132524
v -34.916119 121.558556 1.749700
v -48.670296 108.800224 -7.553223
v -22.642838 113.611977 -9.640804
v -38.623741 102.831787 -16.920368
v -23.524841 122.394737 -25.609951
v -39.573277 109.763214 -29.255880
v -36.061787 135.250122 -24.138952
v -49.576862 120.099442 -28.227217
v -29.745708 126.911331 -2.384657
v -34.521133 135.113525 -8.070120
v -30.408951 135.285217 -18.029716
v -22.874592 127.597023 -18.987202
v -22.046719 122.128494 -9.166115
v -55.150276 114.925339 -17.671049
v -43.740166 103.190353 -18.944748
v -51.169003 115.374046 -26.700489
v -44.197273 108.245811 -27.559406
v -50.535351 107.796837 -12.500128
vt 1.000000 1.000000
vt 1.000000 1.000000
vt 1.000000 1.000000
vt 1.000000 1.000000
vt 1.000000 1.000000
vt 1.000000 1.000000
vt 1.000000 1.000000
vt 1.000000 1.000000
vt 1.000000 1.000000
vt 1.000000 1.000000
vt 1.000000 1.000000
vt 1.000000 1.000000
vt 1.000000 1.000000
vt 1.000000 1.000000
vt 1.000000 1.000000
vt 1.000000 1.000000
vt 1.000000 1.000000
vt 1.000000 1.000000
vt 1.000000 1.000000
vt 1.000000 1.000000
vn -0.4983 0.7546 0.4270
vn -0.9350 0.2978 0.1928
vn 0.0216 -0.0613 0.9979
vn -0.4601 -0.5169 0.7219
vn 0.7757 -0.5564 0.2980
vn 0.2818 -0.9578 0.0567
vn 0.7186 -0.0132 -0.6953
vn 0.2118 -0.4429 -0.8712
vn -0.0626 0.7857 -0.6154
vn -0.5241 0.3145 -0.7914
vn 0.5152 0.4437 0.7333
vn 0.2634 0.8624 0.4323
vn 0.4769 0.8742 -0.0919
vn 0.8699 0.4736 -0.1376
vn 0.9116 0.1814 0.3688
vn -0.9595 -0.2617 -0.1043
vn -0.3032 -0.9369 -0.1740
vn -0.7307 -0.2453 -0.6372
vn -0.3358 -0.6349 -0.6958
vn -0.7157 -0.6802 0.1584
s 1
f 1/1/1 2/2/2 3/3/3
f 3/3/3 4/4/4 5/5/5
f 5/5/5 6/6/6 7/7/7
f 7/7/7 8/8/8 9/9/9
f 9/9/9 10/10/10 1/1/1
f 1/1/1 3/3/3 11/11/11
f 9/9/9 1/1/1 12/12/12
f 7/7/7 9/9/9 13/13/13
f 5/5/5 7/7/7 14/14/14
f 3/3/3 5/5/5 15/15/15
f 2/2/2 10/10/10 16/16/16
f 4/4/4 2/2/2 16/16/16
f 6/6/6 4/4/4 17/17/17
f 8/8/8 6/6/6 17/17/17
f 10/10/10 8/8/8 18/18/18
f 18/18/18 8/8/8 19/19/19
f 8/8/8 17/17/17 19/19/19
f 17/17/17 4/4/4 20/20/20
f 4/4/4 16/16/16 20/20/20
f 16/16/16 10/10/10 18/18/18
f 3/3/3 15/15/15 11/11/11
f 5/5/5 14/14/14 15/15/15
f 7/7/7 13/13/13 14/14/14
f 9/9/9 12/12/12 13/13/13
f 1/1/1 11/11/11 12/12/12
f 1/1/1 10/10/10 2/2/2
f 9/9/9 8/8/8 10/10/10
f 7/7/7 6/6/6 8/8/8
f 5/5/5 4/4/4 6/6/6
f 3/3/3 2/2/2 4/4/4
f 20/20/20 16/16/16 18/18/18
f 15/15/15 12/12/12 11/11/11
f 12/12/12 15/15/15 13/13/13
f 13/13/13 15/15/15 14/14/14
f 20/20/20 18/18/18 17/17/17
f 17/17/17 18/18/18 19/19/19
