# Blender v2.82 (sub 7) OBJ File: ''
# www.blender.org
o RightShoe
v -19.802860 20.389820 -33.870556
v -21.111416 28.260529 3.146157
v -8.386552 19.149015 -26.392359
v -34.396423 18.908140 -26.280163
v -38.806732 19.751368 6.518852
v -19.996281 19.029385 22.412897
v -4.009655 16.944012 6.839299
v -27.368279 -0.069830 -36.094444
v -13.795373 0.033762 -34.871426
v -4.470591 0.008800 -23.632944
v -38.489803 0.022669 -23.210077
v -31.760223 -0.013265 28.201857
v -41.420982 0.042683 14.424513
v -9.358500 0.096502 28.378351
v -1.004970 0.023514 14.160419
vt 1.000000 1.000000
vt 1.000000 1.000000
vt 1.000000 1.000000
vt 1.000000 1.000000
vt 1.000000 1.000000
vt 1.000000 1.000000
vt 1.000000 1.000000
vt 1.000000 1.000000
vt 1.000000 1.000000
vt 1.000000 1.000000
vt 1.000000 1.000000
vt 1.000000 1.000000
vt 1.000000 1.000000
vt 1.000000 1.000000
vt 1.000000 1.000000
vn 0.0505 0.6499 -0.7583
vn 0.0475 0.9902 0.1316
vn 0.7022 0.5775 -0.4164
vn -0.6770 0.5808 -0.4521
vn -0.7743 0.5977 0.2079
vn 0.0556 0.6969 0.7150
vn 0.8141 0.5510 0.1831
vn -0.3064 -0.5704 -0.7621
vn 0.3763 -0.5869 -0.7169
vn 0.7497 -0.5966 -0.2865
vn -0.7481 -0.5957 -0.2925
vn -0.4272 -0.4488 0.7849
vn -0.7951 -0.5407 0.2748
vn 0.4634 -0.4292 0.7753
vn 0.8112 -0.5347 0.2368
s 1
f 1/1/1 2/2/2 3/3/3
f 2/2/2 1/1/1 4/4/4
f 2/2/2 4/4/4 5/5/5
f 6/6/6 2/2/2 5/5/5
f 3/3/3 2/2/2 7/7/7
f 2/2/2 6/6/6 7/7/7
f 8/8/8 4/4/4 1/1/1
f 1/1/1 9/9/9 8/8/8
f 9/9/9 3/3/3 10/10/10
f 9/9/9 1/1/1 3/3/3
f 4/4/4 8/8/8 11/11/11
f 5/5/5 12/12/12 6/6/6
f 12/12/12 5/5/5 13/13/13
f 14/14/14 7/7/7 6/6/6
f 6/6/6 12/12/12 14/14/14
f 7/7/7 14/14/14 15/15/15
f 7/7/7 15/15/15 10/10/10
f 4/4/4 11/11/11 5/5/5
f 7/7/7 10/10/10 3/3/3
f 5/5/5 11/11/11 13/13/13
f 11/11/11 8/8/8 9/9/9
f 11/11/11 9/9/9 10/10/10
f 11/11/11 10/10/10 13/13/13
f 13/13/13 10/10/10 15/15/15
f 13/13/13 15/15/15 12/12/12
f 12/12/12 15/15/15 14/14/14
