v -10.957406 135.595276 5.012756
v -14.171975 121.686226 20.291658
v 10.240983 135.573090 5.012755
v 9.048435 142.691345 -9.427816
v -9.749954 142.711029 -9.427815
v -33.771049 121.057899 -23.304375
v -37.387737 105.116150 -13.613388
v -35.770535 121.543427 -8.508093
v -36.585140 107.613663 3.571954
v -27.383610 110.588402 -34.043900
v -25.356728 136.258392 -21.392117
v -20.564323 129.002411 -30.549665
v 33.024128 120.987953 -23.304382
v 26.613167 110.531853 -34.043907
v 19.832458 128.960083 -30.549673
v 36.607433 105.036201 -14.012436
v 35.024632 121.469292 -8.508099
v 24.640053 136.206055 -21.392118
v 35.810463 107.938560 3.570645
v 9.845414 139.806152 -24.212778
v -10.552978 139.827515 -24.212778
v -0.570983 124.155991 -34.922482
v 24.238483 134.706421 -4.182760
v 29.423489 120.384888 10.699321
v -30.173702 120.048264 10.701620
v -24.958294 134.757904 -4.182755
vt 1.000000 1.000000
vt 1.000000 1.000000
vt 1.000000 1.000000
vt 1.000000 1.000000
vt 1.000000 1.000000
vt 1.000000 1.000000
vt 1.000000 1.000000
vt 1.000000 1.000000
vt 1.000000 1.000000
vt 1.000000 1.000000
vt 1.000000 1.000000
vt 1.000000 1.000000
vt 1.000000 1.000000
vt 1.000000 1.000000
vt 1.000000 1.000000
vt 1.000000 1.000000
vt 1.000000 1.000000
vt 1.000000 1.000000
vt 1.000000 1.000000
vt 1.000000 1.000000
vt 1.000000 1.000000
vt 1.000000 1.000000
vt 1.000000 1.000000
vt 1.000000 1.000000
vt 1.000000 1.000000
vt 1.000000 1.000000
vn 0.0009 0.8206 0.5714
vn 0.0008 0.7394 0.6733
vn 0.0009 0.8539 0.5204
vn 0.0010 0.9909 0.1344
vn -0.8604 0.2768 -0.4279
vn -0.9854 0.0595 -0.1595
vn -0.9261 0.3717 0.0643
vn -0.9615 0.2100 0.1773
vn -0.7780 0.1510 -0.6099
vn -0.7848 0.5388 -0.3063
vn -0.6135 0.3977 -0.6822
vn 0.8600 0.2778 -0.4281
vn 0.7761 0.1526 -0.6119
vn 0.6143 0.3964 -0.6823
vn 0.9842 0.0598 -0.1668
vn 0.9270 0.3701 0.0609
vn 0.7858 0.5372 -0.3063
vn 0.9621 0.2105 0.1732
vn 0.0009 0.8723 -0.4889
vn 0.0009 0.8708 -0.4916
vn 0.0006 0.5645 -0.8254
vn 0.7901 0.5930 0.1554
vn 0.8625 0.4245 0.2755
vn -0.8617 0.4206 0.2838
vn -0.7890 0.5932 0.1599
f 1/1/1 2/2/2 3/3/3
f 3/3/3 4/4/4 1/1/1
f 1/1/1 4/4/4 5/5/4
f 6/6/5 7/7/6 8/8/7
f 8/8/7 7/7/6 9/9/8
f 10/10/9 7/7/6 6/6/5
f 11/11/10 12/12/11 6/6/5
f 8/8/7 11/11/10 6/6/5
f 10/10/9 6/6/5 12/12/11
f 13/13/12 14/14/13 15/15/14
f 16/16/15 14/14/13 13/13/12
f 16/16/15 13/13/12 17/17/16
f 18/18/17 17/17/16 13/13/12
f 15/15/14 18/18/17 13/13/12
f 17/17/16 19/19/18 16/16/15
f 20/20/19 5/5/4 4/4/4
f 21/21/20 5/5/4 20/20/19
f 20/20/19 22/22/21 21/21/20
f 18/18/17 23/23/22 17/17/16
f 23/23/22 24/24/23 17/17/16
f 24/24/23 19/19/18 17/17/16
f 25/25/24 26/26/25 8/8/7
f 26/26/25 11/11/10 8/8/7
f 25/25/24 8/8/7 9/9/8
v 13.426414 121.751465 20.291655
v -14.171975 121.780365 20.291658
v 10.240983 135.667236 5.012755
vt 1.000000 1.000000
vt 1.000000 1.000000
vt 1.000000 1.000000
vn 0.0008 0.7394 0.6733
f 29/27/26 28/28/26 27/29/26
